<svg width="41" height="20" viewBox="0 0 41 20" fill="none" xmlns="http://www.w3.org/2000/svg">
  <path fill-rule="evenodd" clip-rule="evenodd" d="M26.1 6.4L39 5.5c.8 0 1.3 1 .8 1.6l-9 12.5a1 1 0 01-.7.4H10a1 1 0 01-.8-.4L.2 7A1 1 0 011 5.5l12.7 1L19.3.2a1 1 0 011.5 0L26 6.4zM28.8 18l-8.3-3v3h8.3zm-9.3 0v-3l-8.3 3h8.3zm-1-3.8l-8.4 3.1-6.3-8.6 14.8 5.5zm3 0l8.5 3.1 6.2-8.6-14.7 5.5zm-2-.8V3l-7 7.8 7 2.6zm1 0V3l7 7.8-7 2.6zm-10-3.3l1.6-1.8-7.8-.5 6.3 2.3zm19 0l-1.7-1.8 7.8-.5-6.2 2.3z" fill="#006CFF"/>
</svg>